<?xml version="1.0" encoding="utf-8"?>
<!-- Generator: Adobe Illustrator 19.0.1, SVG Export Plug-In . SVG Version: 6.00 Build 0)  -->
<svg version="1.1" id="Слой_1" xmlns="http://www.w3.org/2000/svg" xmlns:xlink="http://www.w3.org/1999/xlink" x="0px" y="0px"
	 viewBox="0 0 566.5 210.5" style="enable-background:new 0 0 566.5 210.5;" xml:space="preserve">
<style type="text/css">
	.st0{fill-rule:evenodd;clip-rule:evenodd;fill:#E60004;}
	.st1{fill-rule:evenodd;clip-rule:evenodd;fill:#C2A26B;}
	.st2{fill-rule:evenodd;clip-rule:evenodd;fill:#FFFFFF;}
	.st3{fill-rule:evenodd;clip-rule:evenodd;fill:#3E2B27;}
</style>
<g>
	<path class="st0" d="M282.2,29l-251,24l-0.3,0.3c-17,16.4-26.3,38.4-26.3,62.1c0,23.7,9.9,46.6,27.3,62.9l0.3,0.3l250.2,23.9l0.2,0
		c0.1,0,250.9-23.9,250.9-23.9l0.3-0.3c17.4-16.3,27.4-39.2,27.4-62.9c0-23.6-9.4-45.6-26.4-62.1l-0.3-0.3l-252-24L282.2,29z"/>
	<path class="st1" d="M554.5,69.6l-0.2-0.3h-6.8l0.7,1c11,14.9,12.5,33.3,12.5,49.4c0,22.6-9.6,44.6-26.4,60.5
		c-8.3,0.8-248.8,24.5-252.9,24.9c-3-0.3-187-18.3-234.6-22.9l-1.3-0.1l4.2,6.1l202.4,19.5l28.9,2.8l0.5-0.1l255.3-25l1.2-1.2
		c22.7-23.9,27.4-50.7,28.2-64.5C567,108,564.4,84,554.5,69.6z"/>
	<path class="st1" d="M535.4,52.1l-1.3-1.3L283.1,27c-1.7-0.2-250.5,23.5-253,23.7l-1.8,0.2L27,52.1C9.6,69.1,0,91.7,0,115.9
		c0,24.3,10.2,47.9,28,64.7l1.3,1.2L31,182c3.4,0.3,247.5,23.7,249.2,23.8l0.5,0l252.4-24l1.3-1.2c17.8-16.8,28.1-40.4,28.1-64.7
		C562.5,91.7,552.9,69.1,535.4,52.1L535.4,52.1z M280.8,200c-3.8-0.4-239.1-22.8-248.8-23.8c-16.5-15.7-26-37.7-26-60.3
		C6,93.4,14.9,72.3,31,56.4c0.6-0.1,13.7-1.3,13.7-1.3C201,40.4,281,32.8,282.7,32.8l0.7,0.1c0,0,247.5,23.6,248.1,23.6
		c16.2,15.8,25.1,36.9,25.1,59.5c0,22.6-9.5,44.6-26.1,60.3C529.9,176.3,280.9,200,280.8,200z"/>
	<path class="st2" d="M329.2,6.9L329.2,6.9L329.2,6.9z M461.3,9.7c-8.5,3.2-25.5,6.8-38.1,6.8c-2.3,0-4.4-0.1-6.3-0.4
		c-5.6-0.8-12.3-3.2-19.4-5.8l-4-1.5l-1.9-0.7c-7.7-2.8-15.6-5.7-22.7-7c-4.9-0.8-9.4-1.2-13.5-1.2c-16.6,0-26.1,5.5-26.7,5.9h0
		l-0.8,0.5l-0.2,0.1L327,7.4l-3.2,5.1c-4.6,7.4-18.5,24.9-26.8,35.3l-6.1,8.5l-6.5,8.9l5.5,0.1c0.1,0,0.4,0,0.6,0
		c1.5,0,3.2-0.4,6.3-1.3l2.4-0.6c7-2.6,24-8.4,39.7-8.3c4.1,0,8,0.4,11.7,1.3c4.3,1.1,11.4,4,16.1,5.9l1.3,0.5l7.7,3.4
		c9.2,4.2,18.9,8.6,32.8,9c1,0,2,0,3.1,0h0.1c9.7,0,20.4-1.6,31.8-9.7l0.6-0.4l7-5.5l-8.5-3.7c-2.3-1-10.3-4.9-14.1-10.4
		c2.4-2.4,9.8-7.9,17.1-13c8.1-5.6,16.1-10.9,17.7-12c3.6-2.3,6.1-4.1,6.1-4.1l0.4-0.3l1-9.2L461.3,9.7z"/>
	<path class="st1" d="M463.2,14.2l-0.1,0.1c-10.9,4.1-33.3,8.8-46.9,7c-7.4-1-15.6-4.3-24.5-7.6c-8.3-3-16.6-6.2-23.7-7.4
		c-23.1-3.9-36.5,4-36.7,4.1l-0.1,0l0,0.1c-0.1,0.1-1,1.6-3,4.8c-6.5,10.4-29.1,38-33.8,44.2l-0.4,0.6l0.7,0.1c0.3,0,1-0.2,2.9-0.9
		c7.5-2.7,33.3-13,54.2-7.8c5.2,1.3,13.4,4.8,18,6.7c12.6,5.2,22.2,11.5,38.7,11.9c9.4,0.3,20.2-0.5,31.8-8.7l0.6-0.4l-0.7-0.3
		c-2.3-1-11.5-5.3-16.3-12.3c-0.5-0.7-1.5-1.7-1.3-3.8c0.4-4.8,42.1-31.4,41.6-29.9c0-0.1-0.2-0.7-0.2-0.7L463.2,14.2z"/>
	<path class="st1" d="M207.7,173.2L207.7,173.2c-0.4-0.2-0.9-0.4-1.4-0.5c0.5-0.2,1.1-0.4,1.4-0.7c0.6-0.5,1-1.4,1-2.1
		c0-1-0.6-2-1.5-2.6c-1.4-0.8-3.2-0.8-4.2-0.8h-8v13.2h8.3c1.3,0,3-0.1,4.3-1c1-0.7,1.6-1.7,1.6-2.8
		C209.2,174.7,208.7,173.8,207.7,173.2L207.7,173.2z M199.4,169h2.6c0.5,0,1.3,0,1.9,0.3c0.4,0.2,0.5,0.5,0.5,0.8
		c0,0.3-0.1,0.6-0.5,0.9c-0.6,0.4-1.2,0.4-2,0.4h-2.5V169L199.4,169z M204.1,176.5c-0.5,0.4-1.1,0.4-1.8,0.4h-3v-2.8h2.9
		c0.7,0,1.4,0.1,2,0.5c0.2,0.1,0.5,0.4,0.5,0.9C204.7,175.9,204.5,176.2,204.1,176.5L204.1,176.5z M343.3,166.4h-4.6l-5.5,13.2h3.8
		c0,0,1.1-2.8,1.2-3h4.9c0.1,0.2,1.2,3,1.2,3h4.6L343.3,166.4L343.3,166.4z M339.1,173.9c0.2-0.5,1.2-3.1,1.5-3.8
		c0.3,0.7,1.4,3.4,1.5,3.8H339.1L339.1,173.9z M309.8,174.6c0,0.2-0.2,1-0.7,1.6c-0.5,0.5-1.3,0.8-2.2,0.8c-0.8,0-1.9-0.2-2.6-1.4
		c-0.4-0.6-0.6-1.5-0.6-2.8c0-1.3,0.2-2,0.6-2.7c0.6-0.9,1.4-1.4,2.6-1.4c1.1,0,1.8,0.3,2.3,1c0.3,0.4,0.5,0.9,0.5,1.4l0,0.2
		l4.2-0.3l0-0.2c-0.2-1.8-1.3-2.9-2-3.4c-1.6-1.2-3.6-1.4-5-1.4c-1.4,0-3.5,0.2-5.3,1.5c-1.6,1.2-2.5,3.1-2.5,5.2c0,1.5,0.5,3,1.3,4
		c0.6,0.8,2.6,2.8,6.6,2.8c1.9,0,3.6-0.5,4.9-1.4c1.1-0.8,1.9-2.1,2.1-3.3l0-0.2l-4.1-0.3L309.8,174.6L309.8,174.6z M272.6,172.3
		c-0.3-0.5-3.6-5.9-3.6-5.9h-4.9c0,0,6,9.3,6.2,9.5c-0.1,0.3-0.4,0.6-0.8,0.8c-0.3,0.2-0.8,0.3-1.5,0.3l-1.7-0.2l0,0.2v2.5l2.2,0.2
		c1,0,2.5-0.1,3.7-1c0.7-0.5,1.3-1.3,2.2-2.9l5.4-9.5h-4C275.8,166.4,272.9,171.7,272.6,172.3L272.6,172.3z M244.5,178l-0.8-1.8
		l-0.2-0.6c-0.5-1.2-1-2.2-2.2-2.8c-0.2-0.1-0.5-0.2-0.8-0.2c0.2-0.1,0.5-0.1,0.7-0.2c0.7-0.5,1.1-1.2,1.4-1.8l0.4-1.1
		c0.5-1.3,0.9-1.8,1.1-2l0.7-0.6l0.4-0.4l-0.5,0h-3.1c-0.5,0-1,0.2-1.4,0.5c-0.5,0.4-0.8,1-1,1.6l-0.5,1.3c-0.3,0.7-0.5,1.2-1.1,1.5
		c-0.3,0.2-0.7,0.2-1.2,0.2h-1v-5.1h-4.4v13.2h4.4V174h1.3c0.7,0,1.4,0,1.9,0.5c0.1,0.1,0.3,0.4,0.6,1.1l0.5,1.3l0.8,1.7
		c0.4,0.6,0.9,0.9,1.5,1h4.3l-0.5-0.4C245.1,178.8,244.8,178.5,244.5,178z"/>
	<path class="st3" d="M376.2,187.3c-0.1,0-0.2,0-0.3,0c-1.4-0.1-2.1-0.9-2.2-1.1l-0.2-0.2c-3.1-3.7-4.7-7.6-4.7-11.5
		c0-3.2,1-6.4,3.1-9.5c3.5-5.2,8.9-8.1,15.4-11.2c1.9-0.9,17-7.1,20-8.3c0.8-1,3.1-3.7,3.8-4.7c-0.2,0.1-0.5,0.2-0.7,0.2
		c-3.5,3.1-13.9,7.6-21.3,10.6c-2.5,0.8-5.3,1.7-6,1.8c-0.3,0-0.5,0-0.7,0c-0.7,0-1.3-0.2-2.1-0.6l-0.6-0.3
		c-1.1-0.5-2.9-1.4-4.7-2.8c-1.8-1.4-2.7-2.4-3.6-3.2l-0.2-0.2c-0.9-1-1.3-1.6-1.3-2.7c0-0.4,0.1-0.8,0.1-1.4c0,0,0-0.1,0-0.1
		c-2.2,1.2-4.4,2.4-6.7,3.5c-11.9,5.8-23.6,8.8-37.8,9.6c-0.3,0-0.5,0-0.8,0c-1.1,0-2.4-0.2-3.6-0.3c-1.1-0.2-2-0.6-3-1.1l-0.3-0.1
		c-1-0.5-3.2-1.6-5.4-3.3c-2.9-2.3-5-5-5.9-6.5c-0.4-0.6-0.9-1.5-1.2-2.5c-1.3,0.4-2.6,0.8-2.6,0.8l-1.6,0.5
		c-3.4,1.1-9.8,3.3-10.4,3.5c-2.1,1.1-5.1,2.6-10.1,4.6c-9,3.6-19.6,4.5-25.4,4.5c-2.2,0-3.8-0.1-4.2-0.3c-1.7-0.5-5.5-2.6-7.4-4.3
		c-2.4-2.1-3.6-3.8-4.5-5l-0.7-0.9c-1.3-1.7-1.8-3.6-1.3-5.6c0.7-3.3,2.1-5.4,3.3-7.2l0.5-0.8c0.6-1,1.7-2.2,2.9-3.5
		c-0.1,0-0.2,0-0.4,0.1l-2.4,0.3c0,0-1.5,0.1-2.2,0.2c-0.5,1.1-1,2-1.4,2.5c-2.2,3.5-5.6,7.4-10.2,11.5
		c-11.4,10.2-30.4,13.2-39.8,13.2c-2.7,0-4.6-0.2-5.3-0.6l0,0l-0.4-0.2c-1.1-0.4-3.7-1.4-6.6-3.9c-2.6-2.2-3.4-3.3-4-4.2l-0.3-0.4
		l-1.3-1.9c-0.4-0.6-0.7-1.5-0.9-2.5c-0.4,0.2-6.5,2.7-6.6,2.7c-15.5,6.2-32.2,12.2-32.4,12.3l-0.9,0.3l-0.8-0.5
		c-1.3-1-13-9.3-14-10.1c-0.7-0.5-1.1-1.3-1.1-2.1c-0.1-0.8,0.2-1.5,0.7-2l50.8-55.8l28.5,0.6l-2.7,2.9
		c-0.4,0.4-33.9,36.5-44.6,48.6c5-1.7,10.9-3.8,17.4-6.3l10.3-4.1c0,0,2.2-0.9,2.7-1.1c6.4-6.9,18.5-15.7,40.5-19l1.3-0.2l0.6,1.1
		c0.1,0.2,0.5,0.9,1.3,1.8c0.6-0.6,1.5-1,2.4-1l19.8-0.1l0.1,1.7c0,0.7,0.1,1.5,0.1,2.3c0,1.5-0.1,3.1-0.2,4.7
		c2.1-0.2,4.9-0.4,4.9-0.4h0c3.8-0.6,8-1.2,11.7-2.5c5.7-2,16.3-5.5,22.9-6.7c0.4-0.1,1-0.2,1.6-0.2c1,0,2.1,0.3,2.4,1.5
		c0.2,0.8,0.3,7.8,0.2,8.3c-0.2,1.7-1.7,2-2.2,2.2l-0.2,0.1l-1.1,0.4c-2.9,0.8-10.5,3.1-16.1,9.6c-4,4.7-4.4,8.3-4.4,9.5
		c0,0.1,0,0.1,0,0.2c0.3,0,0.7,0,0.7,0c2.4,0,8.9-0.2,14.7-4.5c5.9-4.5,9.2-10.7,9.9-19.1c0.1-0.5,0.1-1,0.1-1.5
		c0-9.2-6.9-19.7-7.7-21c-0.3-0.4-0.5-1-0.5-1.6c0-0.9,0.4-1.9,1.5-2.8c1.8-1.6,16.2-7.2,41.2-12.1l6.8-1.3l2.7-0.5l-5.1,18.6h-1.3
		c0,0,0,0-0.1,0c-8.5,0-23.8,3.3-26.9,4.3c0.1,0.2,1.3,2.1,1.3,2.1c2.3,3.5,5.9,9,5.9,18.4c0,0.7,0,1.5-0.1,2.2
		c-0.3,4.4-1,7.7-1.5,10c0,0,0,0.2-0.1,0.4c0.4-0.1,0.6-0.2,0.6-0.2c0,0,3.5-0.8,4.6-1.1c2.1-3.9,5-7.5,9.1-11
		c11.8-10.4,32.5-13.1,42.9-13.1h0.7l0.5,0.5c2.3,2.2,3.9,4.2,5.5,6.8c1.3,2.2,2.2,4,2.5,5.3l0.2,0.6l-0.3,0.6
		c-3,6.2-10,10.1-16.3,13.6l-0.4,0.2c-4.5,2.5-10.3,4.6-15.8,6c7.8-1.1,17.6-3.6,28.1-8.8c0,0,0.9-0.5,1.9-0.9
		c2.1-1.1,4.3-2.3,6.3-3.5l3.4-2.3c0,0,6.4-4.2,6.5-4.3c1.7-1.5,3.5-2.7,5.4-3.8c11.7-6.7,32.1-8.1,36.5-8.1l1.1,0.1l2.5,4.9
		c0,0,0.1,0.3,0.2,0.4c1-1.4,2-2.8,2-2.8l1.4-2.1l21.6,0l3.6,0c0,0-17.1,22.4-19.1,24.9c2-0.9,4-1.7,5.3-2.4l0.7-0.3
		c2.2-1.1,5.3-2.7,7.4-3.6c3.1-4.1,6.8-7.5,11.1-10.2c8.7-5.6,21.2-8.4,37.2-8.4h0.1l1.2,0c0,0,2,4.8,2.3,5.3c0.7-1,1.5-2.1,2.7-3.9
		l0.5-0.8l25.5,0l-2.4,2.9c0,0-15.5,18.9-20.3,24.7c6-1.7,11.9-4.5,12-4.5l1.5-0.7l5.1,9.7l-1.8,0.8c-1.1,0.4-26.3,11-31.2,12.6
		l-0.7,0.2l-0.7-0.3c-1.2-0.6-3.7-2.2-5.5-3.8c-1.9-1.7-2.8-2.9-3.6-3.8c-0.3-0.5-0.5-1-0.5-1.8c0-0.2,0-0.4,0.1-0.7
		c-3.5,2.2-7.3,4.3-10.9,5.9c-4.8,2.1-9.8,3.5-14.8,4.2c-0.2,0-0.4,0-0.6,0c-0.8,0-1.6-0.2-2.4-0.7l-0.6-0.3c-1-0.5-2.8-1.4-4.7-2.9
		c-2-1.5-3.7-2.8-4.6-4c-0.8-1-1.1-1.8-1.1-2.8c0-0.4,0-0.9,0.1-1.4c0,0,0.1-0.9,0.1-1.1c-0.3,0.1-0.9,0.4-0.9,0.4l-1.4,0.6
		l-1.5,0.7c-5.1,2.4-11.3,5.5-16.5,8.6c-0.4,0.6-7.8,10.5-7.8,10.5l-7.5,10c-6.8,8.7-13.8,13.5-14.1,13.7l-0.1,0.1l-0.1,0.1
		c-0.2,0.1-0.8,0.3-1.9,0.4l-8.7,0.6C381.3,187,377.4,187.3,376.2,187.3L376.2,187.3z M396,159.2c-2.9,1.3-6.8,3.3-9,5.9
		c-1.9,2.2-2.4,4.2-2.4,5.7c0,0.7,0.1,1.3,0.3,1.8C387.4,169.9,392.6,163.5,396,159.2L396,159.2z M215.5,120.4
		C215.5,120.4,215.5,120.4,215.5,120.4c-9.3,1.6-21.7,11.7-21.7,19.8c0,0.1,0,0.2,0,0.2c0.5,0,1.1,0.1,1.7,0.1
		c4.8,0,13.1-1.3,19-9.6c1.7-2.3,2.8-5.1,3.6-8c-0.9-0.8-1.7-1.6-2.4-2.5C215.6,120.4,215.6,120.4,215.5,120.4L215.5,120.4z
		 M498,119.9c-5.3,0.1-13.1,1.4-18.7,5.3c-6.2,4.3-8.9,8.4-9.8,10.8l0.4,0c3.6-0.4,11.1-1.2,21.6-10.3
		C491.4,125.6,495.1,122.4,498,119.9L498,119.9z M423.3,119.3c-5.1,0.1-13.3,1.4-19.4,5.6c-6.4,4.4-8.5,8.6-9.2,10.7
		c0.1,0,1-0.2,1-0.2c2.8-0.4,7.9-1.2,15.3-6.1c2.1-1.4,5.2-3.6,8-6.1C419,123.2,421.2,121.2,423.3,119.3L423.3,119.3z M353.1,118.1
		c-3.8,0-10,1.6-15,5.7c-2.4,2-3.9,3.9-5.1,5.7c14.2-3.2,22.2-9.1,22.8-10.9C355.2,118.2,354.3,118.1,353.1,118.1L353.1,118.1z
		 M61.2,152.8l29.1-0.1l63.2-66.2l-28.3-0.5L61.2,152.8L61.2,152.8z M406.4,144.8L406.4,144.8l0.1-0.1L406.4,144.8L406.4,144.8z
		 M74.7,122.7l-0.4-3.3c-2.8-1.6-9.9-7-9.7-12.3c0.3-9.1,32.3-27.6,89.7-28.7c13.1-0.4,25.8-0.5,37-0.6c24.3-0.2,43.5-0.4,54.1-3.4
		c6.2-1.8,14.3-12.3,16.3-17.3l1.1-2.5c0,0-9.9,2.5-13.3,3c-17.4,2.7-47.7,3.2-67.8,3.6l-16.5,0.4c-6.4,0.3-22.5,1.4-30.8,2.1
		c-54.7,4.6-94.2,19.8-96.1,37c-0.1,0.5-0.1,1-0.1,1.5c0,14.7,24,18.7,32.1,20L74.7,122.7z"/>
	<path class="st2" d="M503.2,135.3c-1.4,0.3-0.2-1.2,0.3-1.9c0.1-0.1,21.9-26.5,21.9-26.5l-20.8,0c-2.2,3.3-3,4.4-4.6,6.5
		c-1.1-2.7-2.4-5.8-3-7.1c-4.7,0-23.6-0.1-36.4,8.1c-4.7,3-8.2,6.6-10.9,10.2c-2.1,0.8-6.2,2.9-8.3,4h0c-2.8,1.5-8,3.4-11.8,5.3
		c5.5-7.1,12.5-16.1,21.2-27.5l-20.7,0c-2.1,3-3.1,4.6-4.6,6.5c-1.1-2.2-2.9-5.5-3.5-6.9c-4.7,0-24.4,1.5-35.6,7.9
		c-1.9,1.1-3.7,2.4-5.2,3.7c-4,2.6-8.4,5.6-10,6.6c-2.8,1.8-5.6,3.3-8.4,4.7c0,0,0-0.1,0-0.1c-13.4,6.6-26.5,9.2-36.6,9.7
		c-1,0.1-1.4,0-1.7-1c-0.1-0.2-0.1-0.7,0-1.4c7.1-1,17.3-3.9,24.4-7.7c6.1-3.4,13.1-7.2,15.9-13c-0.3-1.3-1.2-3-2.3-4.8
		c-1.6-2.7-3.3-4.6-5.2-6.4c-10.1,0-30.5,2.8-41.8,12.7c-4.5,4-7.3,7.7-9.1,11.2c-1.7,0.4-3.8,0.9-5.3,1.3l0,0
		c-1.4,0.4-3.2,0.9-3.6,1.1c-0.1,0,0.4-1.1,0.6-1.9c0.3-1.9,1.4-5.7,1.8-11.2c0.8-12.8-5.6-18.7-7.1-22c-0.3-0.8-0.2-1.5,0.3-1.9
		c1-0.8,18.8-4.7,28.3-4.7c1-3.4,2.9-11,4-14.6c-2,0.3-4.2,0.8-6.7,1.2C293,80.3,279.3,85.9,278,87.1c-0.8,0.7-1.1,1.5-0.7,2
		c0.4,0.6,8.9,13.1,7.9,23.6c-0.7,8-3.7,15.1-10.6,20.3c-7.1,5.3-15.2,4.7-16.5,4.9c-1.3,0.1-1.5-0.4-1.7-1.2
		c-0.2-1.1-0.1-5.6,4.7-11.4c6.8-8,16.4-9.9,17.9-10.5c0.6-0.2,1.2-0.1,1.3-0.8c0.1-0.7-0.1-7.3-0.2-7.6c-0.1-0.3-1.2-0.2-2-0.1
		c-6.3,1.2-16.5,4.6-22.6,6.7c-3.7,1.3-8,1.9-12,2.5v0c-1.7,0.2-5.7,0.5-7.1,0.7c0.4-2.7,0.5-6.7,0.4-8.9c0,0-14.3,0.1-18.2,0.1
		c-1.2,0-1.6,1-1.6,1.6c0,0.4,0.1,0.9,0.1,1.4c-2.3-2.3-3.6-4.3-3.8-4.8c-20.8,3.2-33.1,11.4-39.8,18.8c-1,0.4-2,0.9-3,1.3l0,0
		c-3.6,1.5-7,2.9-10.4,4.1l0,0c-8.2,3.1-15.5,5.6-21.2,7.5c-0.9,0.3-1-0.9-0.2-1.7c7.6-8.8,46.8-51,46.8-51l-23.7-0.5
		c0,0-49.1,53.9-50.3,55.2c-0.3,0.3-0.4,1,0.3,1.5c1,0.8,13.9,10,13.9,10s16.6-6,32.3-12.3c0,0,0,0,0-0.1c2.2-0.9,4.4-1.8,6.6-2.7
		c0,0,1.7-0.7,2.5-1.1c-0.1,0.2-0.2,0.3-0.2,0.5c-0.4,1.6,0,2.8,0.7,3.8c0.3,0.5,0.7,1.1,1.2,1.8c0.8,1,1.2,1.9,4.1,4.4
		c3.4,2.8,6.2,3.5,6.6,3.8c1.7,1.1,28.7,0.6,43.1-12.3c4.5-4.1,7.8-7.8,9.9-11.1c0.1,0,0.9-1.4,1.7-3.2c1.3-0.1,2.8-0.2,3.2-0.3
		c0.4,0,1.5-0.2,2.3-0.3l0,0c2.8-0.4,5.4-1,5.4-1s0.3-0.1,0.3,0c0,0.1,0,0-0.1,0.1c-1.8,1.7-5.1,5-6.4,7c-1.4,2.2-2.9,4.1-3.7,7.5
		c-0.5,2,0.4,3.4,1,4.1c1,1.3,2,3.1,5,5.6c1.7,1.5,5.3,3.4,6.8,3.9c1.1,0.4,16.2,0.7,28.4-4.1c5.1-2,8-3.5,9.9-4.5
		c0.4-0.2,7.4-2.6,10.6-3.6c2.1-0.6,5.3-1.6,6.4-1.9c-0.3,1.7,0.4,2.9,1,3.8c1,1.5,3,4,5.6,6.1c2.3,1.8,4.9,3,5.4,3.2
		c1,0.5,1.7,0.8,2.5,0.9c1.6,0.2,3,0.4,4,0.3c14.1-0.9,25.4-3.7,37.2-9.5c0,0,0-0.1,0-0.1c3.4-1.5,6.8-3.3,10.1-5.3
		c-0.7,1.9-0.7,2.6-0.9,3.9c-0.2,1.6-0.2,1.7,0.7,2.6c0.9,0.9,1.8,1.8,3.6,3.3c2,1.6,4.1,2.4,5,2.9c0.7,0.4,1.1,0.4,1.8,0.3
		c1.3-0.2,8.3-1.5,14.6-4.3c5.7-2.5,10.8-5.2,15.4-8.9l0.6-0.1c0,0-2.9,3.8-6,7.9c-8.9,4.1-27.2,9.5-34.1,19.7
		c-7.1,10.4,1.3,18.6,1.7,19.2c0,0,0.2,0.4,0.9,0.4c0.7,0.1,8.2-0.5,8.2-0.5s7.8-0.5,8.7-0.6c0.9-0.1,1.3-0.3,1.3-0.3
		s7-4.7,13.7-13.3c3.7-4.7,4.1-5.4,15.5-20.7c5.9-3.5,13.1-6.9,18.5-9.5c1.3-0.6,4.2-2,5.6-2.5c-0.8,2.1-0.8,3-1,4.4
		c-0.2,1.6-0.1,2,0.6,2.9c0.9,1,2.5,2.3,4.4,3.7c2.3,1.7,4.2,2.5,5.1,3c0.7,0.4,1.3,0.5,2,0.4c1.7-0.2,7.4-1,14.3-4
		c4.6-2.1,10-5.1,14.6-8.5c-0.7,1.9-1.7,4.8-1.1,5.6c0.7,0.9,1.5,2,3.3,3.6c1.7,1.4,4,3,5.1,3.5c4.8-1.7,31-12.6,31-12.6l-3.4-6.5
		C519.1,129.8,510.4,133.9,503.2,135.3L503.2,135.3z M333.7,118.5c7.1-5.8,16.4-7,19.6-5.4c4.9,2.3-7.6,11.5-26.5,15
		c-0.1,0-0.4,0-0.4-0.3C327.9,125,329.7,121.8,333.7,118.5L333.7,118.5z M212.6,128.2c-7.5,10.4-18.6,10.6-22.6,10.3
		c-1-0.1-1.3-0.8-1.3-1.5c-0.5-9.5,13.1-20.4,23.1-22.1c0.8-0.1,1.4,0.1,1.7,0.4c0.9,1.1,2,2.3,3.3,3.3
		C216.1,121.7,214.9,125,212.6,128.2L212.6,128.2z M397.2,152.2c0,0.1-0.1,0.2-0.3,0.4c-0.8,1.2-13.2,17.6-16.1,18.8
		c0,0-4-4.9,1.4-11.2c4.1-4.7,12.8-7.6,13.3-7.8c0.6-0.2,0.8-0.3,1.3-0.4C397.2,151.8,397.4,151.9,397.2,152.2L397.2,152.2z
		 M416.9,120.7c-2.8,2.5-5.8,4.7-8.2,6.2c-8.4,5.6-14.1,6.1-16.7,6.5c-1.7,0.3-2.9,0.4-2.7-0.8c0.4-2.4,2.6-7.7,10.3-13
		c8.4-5.8,20.8-6.5,24.6-5.6C422.3,115.7,419.4,118.4,416.9,120.7L416.9,120.7z M489.3,123.2c-11.3,9.8-19.2,10.3-22.9,10.8
		c-1.8,0.2-2.5,0.2-2.3-1c0.4-2.4,3.1-7.6,10.8-12.9c7.9-5.5,19.6-6.2,24.1-5.4C497.2,116.2,492.3,120.6,489.3,123.2L489.3,123.2z
		 M59.5,103.2c-0.3,7.5,10.6,13.9,10.6,13.9c-1.9-0.9-35.1-3.4-33.3-20.2c1.6-15,38-30.7,94.5-35.4c8.5-0.7,24.5-1.8,30.8-2.1
		c14.7-0.6,61-0.3,84.5-4c3.9-0.6,7.7-1.3,10.2-2.9c-1.9,4.8-9.8,14.7-15.2,16.3c-15.2,4.3-50,2.6-90.7,3.9l0,0
		C94.2,73.9,59.9,91.8,59.5,103.2L59.5,103.2z M122.5,84l23.5,0.4l-59.9,62.8l-24.2,0L122.5,84z"/>
	<path class="st1" d="M71.4,118.9l-0.4-3.3c-2.8-1.6-9.9-7-9.7-12.3c0.3-9.1,32.3-27.6,89.7-28.7c13.1-0.4,25.8-0.5,37-0.6
		c24.3-0.2,43.6-0.4,54.1-3.4c6.2-1.8,14.3-12.3,16.3-17.3l1.1-2.5c0,0-9.9,2.5-13.3,3c-17.4,2.7-47.7,3.2-67.8,3.6l-16.5,0.4
		c-6.4,0.3-22.5,1.4-30.8,2.1c-54.7,4.6-94.2,19.8-96.1,37c-0.1,0.5-0.1,1-0.1,1.5c0,14.7,24,18.7,32.1,20L71.4,118.9L71.4,118.9z
		 M37.6,98.2c0-0.4,0-0.8,0.1-1.2c1.5-13.4,34.1-29.6,93.6-34.6c8.3-0.7,24.3-1.8,30.7-2l16.5-0.4c20.1-0.3,50.6-0.9,68.1-3.6
		c2.7-0.4,5.6-0.9,8.1-1.9c-2.9,5.1-9.2,12.2-13.4,13.4c-10.2,2.9-29.3,3.1-53.4,3.3c-11.2,0.1-23.9,0.2-37,0.6
		C94.3,73,59,90.8,58.6,103.2c0,0.1,0,0.2,0,0.3c0,5,4.3,9.3,7.5,11.9C57.5,113.9,37.6,109.9,37.6,98.2L37.6,98.2z M121.8,82.3
		l28.3,0.5L87,149l-29.1,0L121.8,82.3L121.8,82.3z M85.8,146.3c-0.7,0-18.1,0-21.6,0c2.8-3,58.2-60.8,58.7-61.4
		c0.7,0,17.6,0.3,21,0.4C141.2,88.2,86.3,145.7,85.8,146.3L85.8,146.3z M326.9,129c15.5-2.9,27.8-9.8,28.3-14.1
		c0.1-1.1-0.4-2.1-1.6-2.6c-3.5-1.7-13.3-0.4-20.6,5.6c-4.2,3.4-6,6.8-7.5,9.5l-0.1,0.1l0,0.2c-0.1,0.4,0,0.8,0.3,1.1
		C326.1,129,326.6,129.1,326.9,129L326.9,129z M334.8,119.9c6.5-5.3,15.1-6.4,17.7-5.2c-0.5,1.9-8.5,7.7-22.8,10.9
		C330.9,123.8,332.4,121.9,334.8,119.9L334.8,119.9z M396.7,151L396.7,151c-0.1,0-1.4,0.4-1.5,0.4c-2.2,0.8-9.8,3.6-13.7,8.1
		c-5.9,6.9-1.5,12.4-1.4,12.4l0.4,0.5l0.6-0.3c3.3-1.3,16.4-18.9,16.4-19l0.4-0.6c0.1-0.2,0.1-0.4,0.1-0.5c0-0.3-0.1-0.5-0.2-0.6
		C397.8,151.2,397.4,150.9,396.7,151L396.7,151z M381.5,168.7c-0.2-0.5-0.3-1.1-0.3-1.8c0-1.5,0.6-3.4,2.4-5.6
		c2.2-2.6,6.1-4.6,9-5.9C389.2,159.7,384.1,166.1,381.5,168.7L381.5,168.7z M529.1,105.1l-2.4,2.9c0,0-15.5,18.9-20.3,24.7
		c6-1.7,11.9-4.5,12-4.5l1.5-0.7l5.1,9.7l-1.8,0.7c-1.1,0.4-26.3,11-31.2,12.6l-0.7,0.2l-0.7-0.3c-1.2-0.6-3.6-2.2-5.5-3.8
		c-1.9-1.7-2.8-2.9-3.6-3.8c-0.3-0.5-0.5-1-0.5-1.8c0-0.2,0-0.4,0.1-0.7c-3.5,2.3-7.3,4.3-10.9,5.9c-4.8,2.1-9.8,3.5-14.8,4.2
		c-1.1,0.1-2-0.1-3.1-0.6l-0.6-0.3c-1.1-0.5-2.8-1.4-4.7-2.9c-2-1.5-3.7-2.8-4.7-4c-0.8-1-1.1-1.8-1.1-2.8c0-0.4,0-0.9,0.1-1.4
		c0,0,0.1-0.9,0.2-1.1c-0.3,0.1-0.9,0.4-0.9,0.4l-1.4,0.6l-1.5,0.7c-5,2.4-11.3,5.4-16.5,8.5c-0.4,0.6-7.8,10.5-7.8,10.5l-7.5,10
		c-6.8,8.7-13.8,13.5-14.1,13.7l-0.1,0.1l-0.1,0.1c-0.2,0.1-0.8,0.3-1.9,0.4l-8.7,0.6c-3.5,0.3-7.8,0.6-8.5,0.5
		c-1.4-0.1-2.1-0.9-2.2-1.1l-0.2-0.2c-3.1-3.7-4.7-7.6-4.7-11.5c0-3.2,1-6.4,3.1-9.5c3.5-5.2,8.9-8.1,15.4-11.2
		c1.9-0.9,16.6-6.9,19.5-8.1c0.8-1,3.4-3.9,4.1-4.9c-0.2,0.1-0.4,0.2-0.5,0.2c-3.5,3.1-13.9,7.6-21.3,10.6c-2.5,0.8-5.3,1.6-6,1.7
		c-1.1,0.1-1.8,0-2.8-0.5l-0.6-0.3c-1.1-0.5-2.9-1.4-4.7-2.8c-1.8-1.4-2.7-2.4-3.6-3.2l-0.2-0.2c-1-1-1.3-1.6-1.3-2.7
		c0-0.4,0-0.9,0.1-1.4c0,0,0-0.1,0-0.1c-2.2,1.2-4.4,2.4-6.7,3.5c-11.9,5.8-23.6,8.8-37.9,9.6c-1.3,0.1-2.9-0.1-4.5-0.3
		c-1.1-0.2-2-0.6-3-1.1l-0.3-0.1c-1-0.5-3.2-1.6-5.4-3.3c-2.9-2.3-5-5-5.9-6.4c-0.4-0.6-0.9-1.5-1.2-2.5c-1.3,0.4-2.6,0.8-2.6,0.8
		s-1.7,0.5-1.6,0.5c-3.4,1.1-9.8,3.3-10.4,3.5c-2.1,1.1-5.1,2.6-10.1,4.6c-12.5,4.9-27.9,4.7-29.6,4.2c-1.7-0.5-5.5-2.6-7.4-4.3
		c-2.4-2.1-3.6-3.7-4.5-5l-0.7-0.9c-1.3-1.7-1.8-3.5-1.3-5.6c0.7-3.3,2.1-5.4,3.3-7.2l0.5-0.8c0.6-1,1.7-2.2,2.9-3.5
		c-0.1,0-0.2,0-0.4,0.1l-2.4,0.3c0,0-1.5,0.1-2.2,0.2c-0.5,1.1-1,2-1.4,2.5c-2.2,3.5-5.6,7.4-10.1,11.5
		c-14.9,13.3-42.5,14.3-45.2,12.5l0.1,0.1l-0.4-0.1c-1.1-0.4-3.7-1.4-6.6-3.9c-2.6-2.2-3.4-3.3-4.1-4.2l-0.3-0.4l-1.3-2
		c-0.4-0.6-0.7-1.5-0.9-2.5c-0.4,0.2-6.5,2.7-6.6,2.7c-15.5,6.2-32.2,12.2-32.4,12.3l-0.9,0.3l-0.7-0.6c-1.3-0.9-13-9.3-14-10.1
		c-0.7-0.6-1.1-1.3-1.1-2.1c0-0.8,0.2-1.5,0.7-2l50.8-55.8l28.5,0.6l-2.7,2.9c-0.4,0.4-33.9,36.5-44.6,48.6c5-1.7,10.9-3.8,17.4-6.3
		l10.3-4.1c0,0,2.2-0.9,2.7-1.1c6.4-6.9,18.5-15.7,40.6-19l1.3-0.2l0.6,1.1c0.1,0.2,0.5,0.9,1.3,1.8c0.6-0.6,1.5-1,2.4-1l19.9-0.1
		l0.1,1.7c0,0.7,0.1,1.5,0.1,2.3c0,1.5-0.1,3.1-0.2,4.7c2.1-0.2,5-0.5,4.9-0.4c3.8-0.6,8-1.2,11.7-2.5c5.7-2,16.3-5.5,22.8-6.8
		c1-0.2,3.5-0.6,4,1.3c0.2,0.8,0.3,7.8,0.2,8.3c-0.2,1.7-1.7,2-2.2,2.2c0,0-0.3,0.1-0.2,0.1l-1.1,0.4c-2.9,0.8-10.5,3.1-16.1,9.6
		c-4,4.7-4.4,8.3-4.4,9.5c0,0.1,0,0.1,0,0.2c0.3,0,0.7,0,0.7,0c2.4-0.1,8.9-0.2,14.7-4.5c5.9-4.5,9.2-10.7,9.9-19.1
		c0-0.5,0.1-1,0.1-1.5c0-9.2-6.9-19.7-7.7-21c-0.3-0.4-0.5-1-0.5-1.6c0-0.9,0.4-1.8,1.5-2.8c1.8-1.6,16.1-7.3,41.2-12.1l6.8-1.3
		l2.7-0.5l-5,18.6l-1.4,0c-8.5,0-23.8,3.3-26.9,4.3c0.1,0.2,1.3,2.1,1.3,2.1c2.3,3.4,6,9,6,18.4c0,0.7,0,1.5-0.1,2.2
		c-0.3,4.4-1,7.7-1.5,10c0,0,0,0.2-0.1,0.4c0.4-0.1,0.6-0.2,0.6-0.2c0,0,3.5-0.9,4.6-1.1c2.1-3.9,5-7.5,9.1-11
		c11.8-10.4,32.5-13.1,42.9-13.1h0.7l0.5,0.5c2.3,2.2,3.9,4.2,5.5,6.8c1.3,2.2,2.2,4,2.5,5.3l0.2,0.6l-0.3,0.6
		c-3,6.2-10,10.1-16.3,13.5l-0.4,0.2c-4.5,2.5-10.3,4.6-15.8,6c0.2,0,0,0.1,0.2,0.1c7.7-1.2,17.7-3.8,27.9-8.8c0,0,0.9-0.5,1.9-0.9
		c2.1-1.1,4.3-2.3,6.3-3.5l3.4-2.3c0,0,6.4-4.2,6.5-4.3c1.7-1.5,3.5-2.7,5.4-3.8c11.7-6.6,32.1-8.1,36.5-8.1l1.1,0.1l2.5,4.8
		c0,0,0.1,0.3,0.2,0.4l2-2.8l1.4-2.1l21.6,0l3.6,0c0,0-17.1,22.4-19.1,24.9c2-0.9,4-1.7,5.3-2.4l0.6-0.3c2.2-1.1,5.3-2.7,7.3-3.5
		c3.1-4.1,6.8-7.5,11.1-10.2c8.7-5.6,21.2-8.4,37.2-8.4h0.1l1.2,0c0,0,2,4.8,2.3,5.3c0.7-1,1.5-2.1,2.7-3.9l0.5-0.8L529.1,105.1
		L529.1,105.1z M502.7,132.9l-0.2,0.2c-0.5,0.7-1,1.4-1,2c0,0.2,0.1,0.4,0.2,0.6c0.2,0.3,0.7,0.7,1.6,0.5c6.1-1.3,13-4.2,15.3-5.3
		c0.5,1,1.9,3.7,2.5,4.8c-4.5,1.9-24.7,10.3-29.7,12c-1-0.6-3-1.8-4.5-3.2c-1.7-1.5-2.5-2.6-3.1-3.4c0,0,0-0.1,0-0.3
		c0-0.5,0.2-1.7,1.2-4.5l1.1-2.9l-2.5,1.8c-4.3,3.2-9.6,6.2-14.5,8.4c-4.6,2-9.3,3.4-14.1,4c-0.5,0.1-0.9,0-1.4-0.3l-0.6-0.3
		c-1-0.5-2.6-1.3-4.3-2.6c-1.8-1.3-3.4-2.6-4.2-3.6c-0.5-0.7-0.6-0.7-0.4-2.1l0.1-0.7c0.1-1,0.2-1.8,0.8-3.4l0.9-2.1l-6.4,2.8
		l-1.4,0.6l-1.5,0.7c-5.2,2.5-11.7,5.6-17,8.8l-0.2,0.1l-8.1,10.9l-7.5,9.9c-6.3,8-12.8,12.6-13.4,13c-0.1,0-0.9,0.2-0.9,0.2
		l-8.7,0.6c-3.6,0.3-7.6,0.5-8.1,0.5c-0.2,0-0.3-0.1-0.3-0.1l0.1,0.1l-0.3-0.4c-4.9-5.8-5.4-11.9-1.4-17.7
		c5.3-7.8,17.9-12.9,27.1-16.6l6.7-2.8l0.2-0.1l7.4-9.8l-3,0.3l-0.2,0.2c-4,3.2-8.7,5.6-15.2,8.4c-6.1,2.7-13,4.3-14.4,4.5
		c-0.5,0.1-0.7,0.1-1.3-0.2l-0.7-0.3c-1.1-0.5-2.6-1.2-4.2-2.4c-1.6-1.3-2.5-2.1-3.3-3l-0.2-0.2c-0.6-0.6-0.6-0.6-0.4-1.8l0.1-0.4
		c0.1-1,0.2-1.7,0.8-3.3l0.8-2.4L369,134c-3.1,1.9-6.5,3.6-10,5.4c-11.7,5.7-22.7,8.5-36.9,9.4c-1,0.1-2.5-0.1-3.8-0.3
		c-0.6-0.1-1.2-0.3-2.2-0.8l-0.3-0.2c-0.9-0.4-3-1.4-4.9-3c-2.7-2.1-4.7-4.8-5.4-5.9c-0.6-0.8-1.1-1.8-0.8-3.1l0.3-1.5l-6.3,1.8
		l-1.6,0.5c-2.4,0.8-10.2,3.4-10.8,3.7c-2,1-5,2.5-9.8,4.4c-11.9,4.7-26.5,4.4-27.8,4.1c-1.4-0.5-4.9-2.3-6.5-3.7
		c-2.2-1.9-3.2-3.4-4.1-4.5l-0.7-1c-0.5-0.6-1.2-1.7-0.8-3.3c0.6-2.8,1.8-4.5,3-6.4l0.6-0.9c1.3-2,4.9-5.5,6.3-6.9
		c0.3-0.3,0.4-0.6,0.3-0.9l0-0.3l-0.1-0.2c-0.4-0.5-1-0.3-1.2-0.3c0,0-2.7,0.6-5.3,1l-2.2,0.3l-3.8,0.3l-0.2,0.5
		c-0.6,1.3-1,2.1-1.3,2.6l-0.1,0l-0.3,0.5c-2.1,3.3-5.3,7-9.7,10.9c-13.7,12.3-39.6,13.3-41.9,12.2l-0.8-0.4
		c-1.1-0.4-3.3-1.3-5.8-3.4c-2.4-2-3-2.9-3.6-3.7l-0.3-0.5l-1.2-1.7c-0.5-0.8-0.9-1.8-0.5-3.2l1-2.4l-4.6,1.9c0,0-6.6,2.7-6.6,2.7
		c-14.1,5.7-29.1,11.1-31.8,12.1c-4.6-3.3-12.8-9.2-13.5-9.7c-0.2-0.1-0.1-0.2-0.2-0.2c0,0,49.4-54.3,50-54.9
		c0.7,0,17.9,0.4,21.2,0.4c-7,7.6-38.7,41.8-45.4,49.5c-0.5,0.5-0.7,1.2-0.7,1.8c0,0.3,0.1,0.7,0.3,0.9c0.4,0.6,1,0.7,1.7,0.5
		l1.8-0.6c5.4-1.8,12-4.1,19.4-6.9c0,0,10.4-4.1,10.4-4.2l3.2-1.4l0.1-0.1c5.9-6.6,17.5-15,38.7-18.4c0.6,0.9,1.8,2.5,3.6,4.4
		l1.8,1.9l-0.3-4.1c0-0.1,0-0.2,0.1-0.4c0.1-0.1,0.3-0.2,0.5-0.2c0,0,15.6-0.1,17.3-0.1c0,0.4,0,0.8,0,1.3c0,2.1-0.1,4.6-0.4,6.5
		l-0.2,1.2l1.2-0.1c0,0,7.2-0.7,7.2-0.7c3.9-0.6,8.3-1.2,12.2-2.6c5.7-2,16.1-5.5,22.4-6.6c0.4-0.1,0.7-0.1,0.9-0.1
		c0.1,1.2,0.1,4.1,0.1,5.7c0,0.4,0,0.7,0,0.9c-0.1,0-0.7,0.2-0.7,0.2l-0.9,0.3c-3.1,0.9-11.3,3.3-17.4,10.5c-4,4.7-5,8.9-5,11.2
		c0,0.3,0,0.6,0.1,0.9c0.2,1,0.6,2.2,2.7,2l0.7,0c2.7,0,9.8-0.2,16.2-5c6.6-5,10.2-11.8,11-21c0.1-0.6,0.1-1.2,0.1-1.8
		c0-9.8-6.7-20.3-8.2-22.5l0,0c0-0.1,0.1-0.4,0.5-0.8c1.1-1,14.5-6.5,40-11.5c0,0,3.5-0.6,5.3-1c-0.5,1.9-3.1,11.4-3.4,12.5
		c-9.4,0.2-26.8,3.9-28.1,4.9c-0.6,0.4-0.9,1.1-0.9,1.9c0,0.4,0.1,0.8,0.3,1.2l1.6,2.6c2.2,3.4,5.5,8.3,5.5,16.9
		c0,0.7,0,1.4-0.1,2.1c-0.2,4.2-1,7.4-1.4,9.5l-0.3,1.5l-0.4,1.3l-0.1,1.2l-0.1,0.8l1.3-0.4c0,0,3.5-1.1,3.5-1.1l5.7-1.4l0.2-0.4
		c1.9-3.8,4.8-7.4,8.9-11c11.1-9.7,31.2-12.4,40.8-12.4c2,1.9,3.4,3.7,4.8,6c1.1,1.8,1.8,3.2,2.1,4.3c-2.7,5.2-9.2,8.9-14.9,12
		l-0.4,0.2c-6.9,3.8-17.1,6.6-24.1,7.6l-0.7,0.1l-0.1,0.7c0,0.3-0.1,0.6-0.1,0.9c0,0.3,0,0.6,0.1,0.8c0.4,1.7,1.5,1.8,2.6,1.7
		c8.4-0.5,21.1-2.4,35.1-9c0,0,3-1.4,3-1.4c2.9-1.4,4.6-2.4,7.3-4.1l3.5-2.3c0,0,6.6-4.3,6.7-4.4c1.6-1.4,3.3-2.6,5.1-3.6
		c10.8-6.1,29.5-7.6,34.6-7.7c0.4,0.8,1.8,3.4,1.8,3.4s1.3,2.5,1.4,2.7l-0.1,0c-4.4-1.1-17,0-25.3,5.8c-8.7,6-10.3,12-10.6,13.6
		c0,0.2,0,0.3,0,0.4c0,0.6,0.2,0.9,0.4,1.1c0.7,0.7,1.9,0.5,3.3,0.3l0.7-0.1c3-0.4,8.6-1.2,16.4-6.5c2.2-1.5,5.4-3.7,8.3-6.3
		l12.4-13.2c0,0,0.4-0.5,0.6-0.9c0.8,0,15.3,0,18.3,0c-2,2.6-16.9,22-16.9,22l-3.2,4.1l-2.2,2.9l9.4-4.2c2.2-0.9,4.3-1.8,5.8-2.6
		l0.7-0.3c2.1-1.1,5.7-2.9,7.5-3.6l0.3-0.1l0.2-0.2c2.9-4,6.5-7.3,10.7-10c8.2-5.2,20-7.9,35.3-7.9c0.4,0.9,1.7,4,1.7,4s1,2.4,1,2.5
		c-4.7-0.8-16.6,0-24.7,5.6c-7.4,5.1-10.6,10.5-11.2,13.5l0,0c0,0.3-0.2,1.1,0.4,1.7c0.6,0.6,1.5,0.6,2.9,0.4l0.3,0
		c3.9-0.4,11.9-1.3,23.1-10.9l10.7-10c1.6-2,2.5-3.3,4.4-6.1c0.9,0,15.2,0,18.4,0C518.5,113.7,502.9,132.7,502.7,132.9L502.7,132.9z
		 M403,141L403,141L403,141L403,141L403,141z M420,115.4c-5.1,0.1-13.3,1.4-19.4,5.6c-6.4,4.4-8.5,8.6-9.2,10.7c0.1,0,1-0.2,1-0.2
		c2.8-0.4,7.9-1.2,15.3-6.1c2.1-1.4,5.2-3.6,8-6.1C415.7,119.4,417.9,117.4,420,115.4L420,115.4z M494.6,116.1
		c-5.3,0.1-13.1,1.4-18.7,5.3c-6.2,4.3-8.9,8.4-9.8,10.8l0.4,0c3.6-0.4,11.1-1.2,21.6-10.3C488.1,121.8,491.7,118.6,494.6,116.1
		L494.6,116.1z M214.1,114.6c1,1.2,2.1,2.3,3.3,3.3l0.4,0.4l-0.1,0.5c-0.8,3.7-2.2,7-4.3,9.9c-7.7,10.7-18.9,11-23.4,10.6
		c-1.4-0.1-2.2-1.2-2.2-2.3c0-0.1,0-0.1,0-0.1c0-0.2,0-0.4,0-0.6c0-10.1,14.2-20.7,23.9-22.3C212.6,113.8,213.5,114,214.1,114.6
		L214.1,114.6z M211.2,127.1c-6.7,9.4-16.5,9.8-20.7,9.5c0-0.1,0-0.2,0-0.2c0-8.1,12.4-18.3,21.6-19.8c0.1,0,0.2,0,0.2,0
		c0.7,0.9,1.6,1.7,2.4,2.4C214,122.1,212.9,124.8,211.2,127.1z"/>
</g>
</svg>
